# xmcd
#
# Track frame offsets:
#	150
#	15667
#	29837
#	43970
#	56694
#	71213
#	86425
#	99618
#	112420
#	125277
#	142449
#	157769
#	169396
#	186914
#	202132
#	218068
#
# Disc length: 3144 seconds
#
# Revision: 0
# Processed by: cddbd v1.5.2PL0 Copyright (c) Steve Scherf et al.
# Submitted via: EasyCDDAExtractor 16.0.6.1
#
DISCID=000c4610
DTITLE=Μπέλλου Σωτηρία - Ογδόντα μεγάλες επιτυχίες-Σ. Μπέλλου 5
DYEAR=2010
DGENRE=Ποικίλη
TTITLE0=Νύχτωσε χωρίς φεγγάρι [Απόστολος Καλδάρας]
TTITLE1=Δυό πόρτες έχει η ζωή [Στέλιος Καζαντζίδης]
TTITLE2=Απόψε κάνεις μπαμ [Βασίλης Τσιτσάνης]
TTITLE3=Ο μπουφετζής [Γ.Μπάτης, διασκ. Γ.Παπαϊωάννου-Δ.Σέμσης]
TTITLE4=Καϋμό μέσ' στην καρδούλα μου [Κώστας Σκαρβέλης]
TTITLE5=Πέφτουν της βροχής οι στάλες [Βασ. Τσιτσάνης]
TTITLE6=Το γελεκάκι [Σπύρος Ολλανδέζος-Γιάννης Θεοδωρίδης]
TTITLE7=Μιά νύχτα στο Πασαλιμάνι [Βασίλης Τσιτσάνης]
TTITLE8=Θα μπλέξω μ' άλλην και θα κλαίς [Β.Τσιτσάνης-Κ.Μάνεσης]
TTITLE9=Σκαλοπάτι, σκαλοπάτι [Γιώργος Λαύκας-Χαρ. Βασιλειάδης]
TTITLE10=Θά 'ρθει μιά μέρα να πονάς [Απ. Χατζηχρήστος-Γιώργος Φωτίδας]
TTITLE11=Η Ζαμπέτα [Κώστας Κανούλας-Στράτος Παγιουμτζής]
TTITLE12=Θα σάς πω μιά ιστορία [Μαρίνος Γαβριήλ-Σωτ. Μπέλλου]
TTITLE13=Μέσ' στα βαριά μεσάνυχτα [Τάκης Λαβίδας-Κώστας Μάνεσης]
TTITLE14=Τις ξένες πόρτες μη χτυπάς [Ηλ. Ανδριόπουλος-Μ. Ελευθερίου]
TTITLE15=Μέσ' στον καθρέφτη, Ελλάδα μου, κοιτώ [Λ. Κόκοτος-Φ. Λάδης]
EXTD=
EXTT0=
EXTT1=
EXTT2=
EXTT3=
EXTT4=
EXTT5=
EXTT6=
EXTT7=
EXTT8=
EXTT9=
EXTT10=
EXTT11=
EXTT12=
EXTT13=
EXTT14=
EXTT15=
PLAYORDER=
